# xmcd
#
# Track frame offsets:
#	150
#	20570
#	32520
#	48649
#	66750
#	77829
#	90949
#	105006
#
# Disc length: 1465 seconds
#
# Revision: 0
# Processed by: cddbd v1.5.1PL0 Copyright (c) Steve Scherf et al.
# Submitted via: dBpowerAMP V4.0
#
DISCID=5205b708
DTITLE=Jan Hammer - escape from television
DYEAR=1900
DGENRE=
TTITLE0=Unknown #1 - Track01
TTITLE1=Unknown #1 - Track02
TTITLE2=Unknown #1 - Track03
TTITLE3=Unknown #1 - Track04
TTITLE4=Unknown #1 - Track05
TTITLE5=Unknown #1 - Track06
TTITLE6=Unknown #1 - Track07
TTITLE7=Unknown #1 - Track08
EXTD=
EXTT0=
EXTT1=
EXTT2=
EXTT3=
EXTT4=
EXTT5=
EXTT6=
EXTT7=
PLAYORDER=
